<mxfile host="app.diagrams.net" modified="2023-06-12T20:44:07.605Z" agent="Mozilla/5.0 (Windows NT 10.0; Win64; x64) AppleWebKit/537.36 (KHTML, like Gecko) Chrome/114.0.0.0 Safari/537.36" etag="Xp277q5fcgIOp7CrJMKC" version="21.3.8" type="github">
  <diagram name="PÃ¡gina-1" id="0agJ2A4bJLPFDpQsn8ZQ">
    <mxGraphModel dx="1195" dy="668" grid="1" gridSize="10" guides="1" tooltips="1" connect="1" arrows="1" fold="1" page="1" pageScale="1" pageWidth="827" pageHeight="1169" math="0" shadow="0">
      <root>
        <mxCell id="0" />
        <mxCell id="1" parent="0" />
        <mxCell id="UXWDfSaP-iCwVB9sFw_U-14" value="Usuario&#xa;" style="shape=table;startSize=30;container=1;collapsible=0;childLayout=tableLayout;verticalAlign=top;fontSize=16;fontFamily=Lucida Console;fillColor=#f5f5f5;fontColor=#333333;strokeColor=#666666;fontStyle=1" vertex="1" parent="1">
          <mxGeometry x="70" y="50" width="240" height="30" as="geometry" />
        </mxCell>
        <mxCell id="UXWDfSaP-iCwVB9sFw_U-15" value="" style="shape=tableRow;horizontal=0;startSize=0;swimlaneHead=0;swimlaneBody=0;strokeColor=inherit;top=0;left=0;bottom=0;right=0;collapsible=0;dropTarget=0;fillColor=none;points=[[0,0.5],[1,0.5]];portConstraint=eastwest;" vertex="1" visible="0" parent="UXWDfSaP-iCwVB9sFw_U-14">
          <mxGeometry y="30" width="240" height="40" as="geometry" />
        </mxCell>
        <mxCell id="UXWDfSaP-iCwVB9sFw_U-16" value="" style="shape=partialRectangle;html=1;whiteSpace=wrap;connectable=0;strokeColor=inherit;overflow=hidden;fillColor=none;top=0;left=0;bottom=0;right=0;pointerEvents=1;" vertex="1" parent="UXWDfSaP-iCwVB9sFw_U-15">
          <mxGeometry width="48" height="40" as="geometry">
            <mxRectangle width="48" height="40" as="alternateBounds" />
          </mxGeometry>
        </mxCell>
        <mxCell id="UXWDfSaP-iCwVB9sFw_U-17" value="" style="shape=partialRectangle;html=1;whiteSpace=wrap;connectable=0;strokeColor=inherit;overflow=hidden;fillColor=none;top=0;left=0;bottom=0;right=0;pointerEvents=1;" vertex="1" parent="UXWDfSaP-iCwVB9sFw_U-15">
          <mxGeometry x="48" width="48" height="40" as="geometry">
            <mxRectangle width="48" height="40" as="alternateBounds" />
          </mxGeometry>
        </mxCell>
        <mxCell id="UXWDfSaP-iCwVB9sFw_U-18" value="" style="shape=partialRectangle;html=1;whiteSpace=wrap;connectable=0;strokeColor=inherit;overflow=hidden;fillColor=none;top=0;left=0;bottom=0;right=0;pointerEvents=1;" vertex="1" parent="UXWDfSaP-iCwVB9sFw_U-15">
          <mxGeometry x="96" width="48" height="40" as="geometry">
            <mxRectangle width="48" height="40" as="alternateBounds" />
          </mxGeometry>
        </mxCell>
        <mxCell id="UXWDfSaP-iCwVB9sFw_U-19" value="" style="shape=partialRectangle;html=1;whiteSpace=wrap;connectable=0;strokeColor=inherit;overflow=hidden;fillColor=none;top=0;left=0;bottom=0;right=0;pointerEvents=1;" vertex="1" parent="UXWDfSaP-iCwVB9sFw_U-15">
          <mxGeometry x="144" width="48" height="40" as="geometry">
            <mxRectangle width="48" height="40" as="alternateBounds" />
          </mxGeometry>
        </mxCell>
        <mxCell id="UXWDfSaP-iCwVB9sFw_U-20" value="" style="shape=partialRectangle;html=1;whiteSpace=wrap;connectable=0;strokeColor=inherit;overflow=hidden;fillColor=none;top=0;left=0;bottom=0;right=0;pointerEvents=1;" vertex="1" parent="UXWDfSaP-iCwVB9sFw_U-15">
          <mxGeometry x="192" width="48" height="40" as="geometry">
            <mxRectangle width="48" height="40" as="alternateBounds" />
          </mxGeometry>
        </mxCell>
        <mxCell id="UXWDfSaP-iCwVB9sFw_U-35" value="" style="shape=table;startSize=0;container=1;collapsible=0;childLayout=tableLayout;rowLines=0;fillColor=#f5f5f5;fontColor=#000000;strokeColor=#666666;" vertex="1" parent="1">
          <mxGeometry x="70" y="80" width="240" height="80" as="geometry" />
        </mxCell>
        <mxCell id="UXWDfSaP-iCwVB9sFw_U-36" value="" style="shape=tableRow;horizontal=0;startSize=0;swimlaneHead=0;swimlaneBody=0;strokeColor=inherit;top=0;left=0;bottom=0;right=0;collapsible=0;dropTarget=0;fillColor=none;points=[[0,0.5],[1,0.5]];portConstraint=eastwest;" vertex="1" parent="UXWDfSaP-iCwVB9sFw_U-35">
          <mxGeometry width="240" height="40" as="geometry" />
        </mxCell>
        <mxCell id="UXWDfSaP-iCwVB9sFw_U-37" value="&lt;font size=&quot;1&quot; color=&quot;#333333&quot; face=&quot;Lucida Console&quot; style=&quot;&quot;&gt;&lt;span style=&quot;font-size: 17px;&quot;&gt;&lt;u&gt;nome&lt;/u&gt;&lt;/span&gt;&lt;/font&gt;" style="shape=partialRectangle;html=1;whiteSpace=wrap;connectable=0;strokeColor=inherit;overflow=hidden;fillColor=none;top=0;left=0;bottom=0;right=0;pointerEvents=1;" vertex="1" parent="UXWDfSaP-iCwVB9sFw_U-36">
          <mxGeometry width="120" height="40" as="geometry">
            <mxRectangle width="120" height="40" as="alternateBounds" />
          </mxGeometry>
        </mxCell>
        <mxCell id="UXWDfSaP-iCwVB9sFw_U-38" value="&lt;font color=&quot;#333333&quot; face=&quot;Lucida Console&quot; style=&quot;font-size: 17px;&quot;&gt;String&lt;/font&gt;" style="shape=partialRectangle;html=1;whiteSpace=wrap;connectable=0;strokeColor=inherit;overflow=hidden;fillColor=none;top=0;left=0;bottom=0;right=0;pointerEvents=1;" vertex="1" parent="UXWDfSaP-iCwVB9sFw_U-36">
          <mxGeometry x="120" width="120" height="40" as="geometry">
            <mxRectangle width="120" height="40" as="alternateBounds" />
          </mxGeometry>
        </mxCell>
        <mxCell id="UXWDfSaP-iCwVB9sFw_U-39" value="" style="shape=tableRow;horizontal=0;startSize=0;swimlaneHead=0;swimlaneBody=0;strokeColor=default;top=0;left=0;bottom=0;right=0;collapsible=0;dropTarget=0;fillColor=none;points=[[0,0.5],[1,0.5]];portConstraint=eastwest;swimlaneFillColor=none;dashed=1;swimlaneLine=0;" vertex="1" parent="UXWDfSaP-iCwVB9sFw_U-35">
          <mxGeometry y="40" width="240" height="40" as="geometry" />
        </mxCell>
        <mxCell id="UXWDfSaP-iCwVB9sFw_U-40" value="&lt;font color=&quot;#333333&quot; face=&quot;Lucida Console&quot; style=&quot;font-size: 17px;&quot;&gt;&lt;u&gt;email&lt;/u&gt;&lt;/font&gt;" style="shape=partialRectangle;html=1;whiteSpace=wrap;connectable=0;strokeColor=default;overflow=hidden;fillColor=none;top=0;left=0;bottom=0;right=0;pointerEvents=1;swimlaneFillColor=none;dashed=1;swimlaneLine=0;" vertex="1" parent="UXWDfSaP-iCwVB9sFw_U-39">
          <mxGeometry width="120" height="40" as="geometry">
            <mxRectangle width="120" height="40" as="alternateBounds" />
          </mxGeometry>
        </mxCell>
        <mxCell id="UXWDfSaP-iCwVB9sFw_U-41" value="String" style="shape=partialRectangle;connectable=0;strokeColor=default;overflow=hidden;fillColor=none;top=0;left=0;bottom=0;right=0;pointerEvents=1;fontSize=17;swimlaneFillColor=none;dashed=1;swimlaneLine=0;fontFamily=Lucida Console;fontColor=#333333;" vertex="1" parent="UXWDfSaP-iCwVB9sFw_U-39">
          <mxGeometry x="120" width="120" height="40" as="geometry">
            <mxRectangle width="120" height="40" as="alternateBounds" />
          </mxGeometry>
        </mxCell>
        <mxCell id="UXWDfSaP-iCwVB9sFw_U-42" value="" style="shape=table;startSize=0;container=1;collapsible=0;childLayout=tableLayout;fontColor=#333333;fillColor=#f5f5f5;strokeColor=#666666;" vertex="1" parent="1">
          <mxGeometry x="70" y="160" width="240" height="160" as="geometry" />
        </mxCell>
        <mxCell id="UXWDfSaP-iCwVB9sFw_U-43" value="" style="shape=tableRow;horizontal=0;startSize=0;swimlaneHead=0;swimlaneBody=0;strokeColor=inherit;top=0;left=0;bottom=0;right=0;collapsible=0;dropTarget=0;fillColor=none;points=[[0,0.5],[1,0.5]];portConstraint=eastwest;" vertex="1" parent="UXWDfSaP-iCwVB9sFw_U-42">
          <mxGeometry width="240" height="40" as="geometry" />
        </mxCell>
        <mxCell id="UXWDfSaP-iCwVB9sFw_U-44" value="&lt;font color=&quot;#333333&quot; face=&quot;Lucida Console&quot; style=&quot;font-size: 13px;&quot;&gt;-&amp;gt;listar(): Array&lt;/font&gt;" style="shape=partialRectangle;html=1;whiteSpace=wrap;connectable=0;strokeColor=inherit;overflow=hidden;fillColor=none;top=0;left=0;bottom=0;right=0;pointerEvents=1;" vertex="1" parent="UXWDfSaP-iCwVB9sFw_U-43">
          <mxGeometry width="240" height="40" as="geometry">
            <mxRectangle width="240" height="40" as="alternateBounds" />
          </mxGeometry>
        </mxCell>
        <mxCell id="UXWDfSaP-iCwVB9sFw_U-45" value="" style="shape=tableRow;horizontal=0;startSize=0;swimlaneHead=0;swimlaneBody=0;strokeColor=inherit;top=0;left=0;bottom=0;right=0;collapsible=0;dropTarget=0;fillColor=none;points=[[0,0.5],[1,0.5]];portConstraint=eastwest;" vertex="1" parent="UXWDfSaP-iCwVB9sFw_U-42">
          <mxGeometry y="40" width="240" height="40" as="geometry" />
        </mxCell>
        <mxCell id="UXWDfSaP-iCwVB9sFw_U-46" value="&lt;font color=&quot;#333333&quot; face=&quot;Lucida Console&quot; style=&quot;font-size: 13px;&quot;&gt;-&amp;gt;visualizar()&lt;/font&gt;" style="shape=partialRectangle;html=1;whiteSpace=wrap;connectable=0;strokeColor=inherit;overflow=hidden;fillColor=none;top=0;left=0;bottom=0;right=0;pointerEvents=1;" vertex="1" parent="UXWDfSaP-iCwVB9sFw_U-45">
          <mxGeometry width="240" height="40" as="geometry">
            <mxRectangle width="240" height="40" as="alternateBounds" />
          </mxGeometry>
        </mxCell>
        <mxCell id="UXWDfSaP-iCwVB9sFw_U-47" value="" style="shape=tableRow;horizontal=0;startSize=0;swimlaneHead=0;swimlaneBody=0;strokeColor=inherit;top=0;left=0;bottom=0;right=0;collapsible=0;dropTarget=0;fillColor=none;points=[[0,0.5],[1,0.5]];portConstraint=eastwest;" vertex="1" parent="UXWDfSaP-iCwVB9sFw_U-42">
          <mxGeometry y="80" width="240" height="40" as="geometry" />
        </mxCell>
        <mxCell id="UXWDfSaP-iCwVB9sFw_U-48" value="&lt;font color=&quot;#333333&quot; face=&quot;Lucida Console&quot; style=&quot;font-size: 13px;&quot;&gt;-&amp;gt;cadastrar(dados:array) : Boolean&lt;/font&gt;" style="shape=partialRectangle;html=1;whiteSpace=wrap;connectable=0;strokeColor=inherit;overflow=hidden;fillColor=none;top=0;left=0;bottom=0;right=0;pointerEvents=1;" vertex="1" parent="UXWDfSaP-iCwVB9sFw_U-47">
          <mxGeometry width="240" height="40" as="geometry">
            <mxRectangle width="240" height="40" as="alternateBounds" />
          </mxGeometry>
        </mxCell>
        <mxCell id="UXWDfSaP-iCwVB9sFw_U-49" value="" style="shape=tableRow;horizontal=0;startSize=0;swimlaneHead=0;swimlaneBody=0;strokeColor=inherit;top=0;left=0;bottom=0;right=0;collapsible=0;dropTarget=0;fillColor=none;points=[[0,0.5],[1,0.5]];portConstraint=eastwest;" vertex="1" parent="UXWDfSaP-iCwVB9sFw_U-42">
          <mxGeometry y="120" width="240" height="40" as="geometry" />
        </mxCell>
        <mxCell id="UXWDfSaP-iCwVB9sFw_U-50" value="&lt;font color=&quot;#333333&quot; face=&quot;Lucida Console&quot; style=&quot;font-size: 13px;&quot;&gt;-&amp;gt;editar()&lt;/font&gt;" style="shape=partialRectangle;html=1;whiteSpace=wrap;connectable=0;strokeColor=inherit;overflow=hidden;fillColor=none;top=0;left=0;bottom=0;right=0;pointerEvents=1;" vertex="1" parent="UXWDfSaP-iCwVB9sFw_U-49">
          <mxGeometry width="240" height="40" as="geometry">
            <mxRectangle width="240" height="40" as="alternateBounds" />
          </mxGeometry>
        </mxCell>
        <mxCell id="UXWDfSaP-iCwVB9sFw_U-51" value="" style="shape=table;startSize=0;container=1;collapsible=0;childLayout=tableLayout;labelBackgroundColor=none;noLabel=1;" vertex="1" parent="1">
          <mxGeometry x="70" y="320" width="240" height="40" as="geometry" />
        </mxCell>
        <mxCell id="UXWDfSaP-iCwVB9sFw_U-52" value="" style="shape=tableRow;horizontal=0;startSize=0;swimlaneHead=0;swimlaneBody=0;strokeColor=inherit;top=0;left=0;bottom=0;right=0;collapsible=0;dropTarget=0;fillColor=none;points=[[0,0.5],[1,0.5]];portConstraint=eastwest;" vertex="1" parent="UXWDfSaP-iCwVB9sFw_U-51">
          <mxGeometry width="240" height="40" as="geometry" />
        </mxCell>
        <mxCell id="UXWDfSaP-iCwVB9sFw_U-53" value="&lt;font style=&quot;font-size: 13px;&quot; face=&quot;Lucida Console&quot;&gt;-&amp;gt;apagar()&lt;/font&gt;" style="shape=partialRectangle;html=1;whiteSpace=wrap;connectable=0;strokeColor=#666666;overflow=hidden;fillColor=#f5f5f5;top=0;left=0;bottom=0;right=0;pointerEvents=1;fontColor=#333333;" vertex="1" parent="UXWDfSaP-iCwVB9sFw_U-52">
          <mxGeometry width="240" height="40" as="geometry">
            <mxRectangle width="240" height="40" as="alternateBounds" />
          </mxGeometry>
        </mxCell>
        <mxCell id="UXWDfSaP-iCwVB9sFw_U-54" value="" style="shape=crossbar;whiteSpace=wrap;html=1;rounded=1;fillColor=#1ba1e2;strokeColor=#006EAF;fontColor=#ffffff;dashed=1;" vertex="1" parent="1">
          <mxGeometry x="310" y="190" width="120" height="20" as="geometry" />
        </mxCell>
        <mxCell id="UXWDfSaP-iCwVB9sFw_U-118" value="Conn" style="shape=table;startSize=30;container=1;collapsible=0;childLayout=tableLayout;verticalAlign=top;fontSize=16;fontFamily=Lucida Console;fillColor=#f5f5f5;fontColor=#333333;strokeColor=#666666;fontStyle=1" vertex="1" parent="1">
          <mxGeometry x="430" y="50" width="240" height="30" as="geometry" />
        </mxCell>
        <mxCell id="UXWDfSaP-iCwVB9sFw_U-119" value="" style="shape=tableRow;horizontal=0;startSize=0;swimlaneHead=0;swimlaneBody=0;strokeColor=inherit;top=0;left=0;bottom=0;right=0;collapsible=0;dropTarget=0;fillColor=none;points=[[0,0.5],[1,0.5]];portConstraint=eastwest;" vertex="1" visible="0" parent="UXWDfSaP-iCwVB9sFw_U-118">
          <mxGeometry y="30" width="240" height="40" as="geometry" />
        </mxCell>
        <mxCell id="UXWDfSaP-iCwVB9sFw_U-120" value="" style="shape=partialRectangle;html=1;whiteSpace=wrap;connectable=0;strokeColor=inherit;overflow=hidden;fillColor=none;top=0;left=0;bottom=0;right=0;pointerEvents=1;" vertex="1" parent="UXWDfSaP-iCwVB9sFw_U-119">
          <mxGeometry width="48" height="40" as="geometry">
            <mxRectangle width="48" height="40" as="alternateBounds" />
          </mxGeometry>
        </mxCell>
        <mxCell id="UXWDfSaP-iCwVB9sFw_U-121" value="" style="shape=partialRectangle;html=1;whiteSpace=wrap;connectable=0;strokeColor=inherit;overflow=hidden;fillColor=none;top=0;left=0;bottom=0;right=0;pointerEvents=1;" vertex="1" parent="UXWDfSaP-iCwVB9sFw_U-119">
          <mxGeometry x="48" width="48" height="40" as="geometry">
            <mxRectangle width="48" height="40" as="alternateBounds" />
          </mxGeometry>
        </mxCell>
        <mxCell id="UXWDfSaP-iCwVB9sFw_U-122" value="" style="shape=partialRectangle;html=1;whiteSpace=wrap;connectable=0;strokeColor=inherit;overflow=hidden;fillColor=none;top=0;left=0;bottom=0;right=0;pointerEvents=1;" vertex="1" parent="UXWDfSaP-iCwVB9sFw_U-119">
          <mxGeometry x="96" width="48" height="40" as="geometry">
            <mxRectangle width="48" height="40" as="alternateBounds" />
          </mxGeometry>
        </mxCell>
        <mxCell id="UXWDfSaP-iCwVB9sFw_U-123" value="" style="shape=partialRectangle;html=1;whiteSpace=wrap;connectable=0;strokeColor=inherit;overflow=hidden;fillColor=none;top=0;left=0;bottom=0;right=0;pointerEvents=1;" vertex="1" parent="UXWDfSaP-iCwVB9sFw_U-119">
          <mxGeometry x="144" width="48" height="40" as="geometry">
            <mxRectangle width="48" height="40" as="alternateBounds" />
          </mxGeometry>
        </mxCell>
        <mxCell id="UXWDfSaP-iCwVB9sFw_U-124" value="" style="shape=partialRectangle;html=1;whiteSpace=wrap;connectable=0;strokeColor=inherit;overflow=hidden;fillColor=none;top=0;left=0;bottom=0;right=0;pointerEvents=1;" vertex="1" parent="UXWDfSaP-iCwVB9sFw_U-119">
          <mxGeometry x="192" width="48" height="40" as="geometry">
            <mxRectangle width="48" height="40" as="alternateBounds" />
          </mxGeometry>
        </mxCell>
        <mxCell id="UXWDfSaP-iCwVB9sFw_U-125" value="" style="shape=table;startSize=0;container=1;collapsible=0;childLayout=tableLayout;rowLines=0;fillColor=#f5f5f5;fontColor=#000000;strokeColor=#666666;" vertex="1" parent="1">
          <mxGeometry x="430" y="80" width="240" height="80" as="geometry" />
        </mxCell>
        <mxCell id="UXWDfSaP-iCwVB9sFw_U-126" value="" style="shape=tableRow;horizontal=0;startSize=0;swimlaneHead=0;swimlaneBody=0;strokeColor=inherit;top=0;left=0;bottom=0;right=0;collapsible=0;dropTarget=0;fillColor=none;points=[[0,0.5],[1,0.5]];portConstraint=eastwest;" vertex="1" parent="UXWDfSaP-iCwVB9sFw_U-125">
          <mxGeometry width="240" height="40" as="geometry" />
        </mxCell>
        <mxCell id="UXWDfSaP-iCwVB9sFw_U-127" value="&lt;font size=&quot;1&quot; color=&quot;#333333&quot; face=&quot;Lucida Console&quot; style=&quot;&quot;&gt;&lt;span style=&quot;font-size: 17px;&quot;&gt;&lt;u&gt;host:&lt;/u&gt;&lt;/span&gt;&lt;/font&gt;" style="shape=partialRectangle;html=1;whiteSpace=wrap;connectable=0;strokeColor=inherit;overflow=hidden;fillColor=none;top=0;left=0;bottom=0;right=0;pointerEvents=1;" vertex="1" parent="UXWDfSaP-iCwVB9sFw_U-126">
          <mxGeometry width="120" height="40" as="geometry">
            <mxRectangle width="120" height="40" as="alternateBounds" />
          </mxGeometry>
        </mxCell>
        <mxCell id="UXWDfSaP-iCwVB9sFw_U-128" value="&lt;font color=&quot;#333333&quot; face=&quot;Lucida Console&quot; style=&quot;font-size: 17px;&quot;&gt;String&lt;/font&gt;" style="shape=partialRectangle;html=1;whiteSpace=wrap;connectable=0;strokeColor=inherit;overflow=hidden;fillColor=none;top=0;left=0;bottom=0;right=0;pointerEvents=1;" vertex="1" parent="UXWDfSaP-iCwVB9sFw_U-126">
          <mxGeometry x="120" width="120" height="40" as="geometry">
            <mxRectangle width="120" height="40" as="alternateBounds" />
          </mxGeometry>
        </mxCell>
        <mxCell id="UXWDfSaP-iCwVB9sFw_U-129" value="" style="shape=tableRow;horizontal=0;startSize=0;swimlaneHead=0;swimlaneBody=0;strokeColor=default;top=0;left=0;bottom=0;right=0;collapsible=0;dropTarget=0;fillColor=none;points=[[0,0.5],[1,0.5]];portConstraint=eastwest;swimlaneFillColor=none;dashed=1;swimlaneLine=0;" vertex="1" parent="UXWDfSaP-iCwVB9sFw_U-125">
          <mxGeometry y="40" width="240" height="40" as="geometry" />
        </mxCell>
        <mxCell id="UXWDfSaP-iCwVB9sFw_U-130" value="&lt;font color=&quot;#333333&quot; face=&quot;Lucida Console&quot; style=&quot;font-size: 17px;&quot;&gt;&lt;u&gt;user:&lt;/u&gt;&lt;/font&gt;" style="shape=partialRectangle;html=1;whiteSpace=wrap;connectable=0;strokeColor=default;overflow=hidden;fillColor=none;top=0;left=0;bottom=0;right=0;pointerEvents=1;swimlaneFillColor=none;dashed=1;swimlaneLine=0;" vertex="1" parent="UXWDfSaP-iCwVB9sFw_U-129">
          <mxGeometry width="120" height="40" as="geometry">
            <mxRectangle width="120" height="40" as="alternateBounds" />
          </mxGeometry>
        </mxCell>
        <mxCell id="UXWDfSaP-iCwVB9sFw_U-131" value="String" style="shape=partialRectangle;connectable=0;strokeColor=default;overflow=hidden;fillColor=none;top=0;left=0;bottom=0;right=0;pointerEvents=1;fontSize=17;swimlaneFillColor=none;dashed=1;swimlaneLine=0;fontFamily=Lucida Console;fontColor=#333333;" vertex="1" parent="UXWDfSaP-iCwVB9sFw_U-129">
          <mxGeometry x="120" width="120" height="40" as="geometry">
            <mxRectangle width="120" height="40" as="alternateBounds" />
          </mxGeometry>
        </mxCell>
        <mxCell id="UXWDfSaP-iCwVB9sFw_U-141" value="" style="shape=table;startSize=0;container=1;collapsible=0;childLayout=tableLayout;labelBackgroundColor=none;noLabel=1;" vertex="1" parent="1">
          <mxGeometry x="430" y="320" width="240" height="40" as="geometry" />
        </mxCell>
        <mxCell id="UXWDfSaP-iCwVB9sFw_U-142" value="" style="shape=tableRow;horizontal=0;startSize=0;swimlaneHead=0;swimlaneBody=0;strokeColor=inherit;top=0;left=0;bottom=0;right=0;collapsible=0;dropTarget=0;fillColor=none;points=[[0,0.5],[1,0.5]];portConstraint=eastwest;" vertex="1" parent="UXWDfSaP-iCwVB9sFw_U-141">
          <mxGeometry width="240" height="40" as="geometry" />
        </mxCell>
        <mxCell id="UXWDfSaP-iCwVB9sFw_U-143" value="&lt;font style=&quot;font-size: 13px;&quot; face=&quot;Lucida Console&quot;&gt;-&amp;gt;conectar(): Object&lt;/font&gt;" style="shape=partialRectangle;html=1;whiteSpace=wrap;connectable=0;strokeColor=#666666;overflow=hidden;fillColor=#f5f5f5;top=0;left=0;bottom=0;right=0;pointerEvents=1;fontColor=#333333;" vertex="1" parent="UXWDfSaP-iCwVB9sFw_U-142">
          <mxGeometry width="240" height="40" as="geometry">
            <mxRectangle width="240" height="40" as="alternateBounds" />
          </mxGeometry>
        </mxCell>
        <mxCell id="UXWDfSaP-iCwVB9sFw_U-144" value="" style="shape=table;startSize=0;container=1;collapsible=0;childLayout=tableLayout;rowLines=0;fillColor=#f5f5f5;fontColor=#000000;strokeColor=#666666;" vertex="1" parent="1">
          <mxGeometry x="430" y="160" width="240" height="80" as="geometry" />
        </mxCell>
        <mxCell id="UXWDfSaP-iCwVB9sFw_U-145" value="" style="shape=tableRow;horizontal=0;startSize=0;swimlaneHead=0;swimlaneBody=0;strokeColor=inherit;top=0;left=0;bottom=0;right=0;collapsible=0;dropTarget=0;fillColor=none;points=[[0,0.5],[1,0.5]];portConstraint=eastwest;" vertex="1" parent="UXWDfSaP-iCwVB9sFw_U-144">
          <mxGeometry width="240" height="40" as="geometry" />
        </mxCell>
        <mxCell id="UXWDfSaP-iCwVB9sFw_U-146" value="&lt;font size=&quot;1&quot; color=&quot;#333333&quot; face=&quot;Lucida Console&quot; style=&quot;&quot;&gt;&lt;span style=&quot;font-size: 17px;&quot;&gt;&lt;u&gt;pass:&lt;/u&gt;&lt;/span&gt;&lt;/font&gt;" style="shape=partialRectangle;html=1;whiteSpace=wrap;connectable=0;strokeColor=inherit;overflow=hidden;fillColor=none;top=0;left=0;bottom=0;right=0;pointerEvents=1;" vertex="1" parent="UXWDfSaP-iCwVB9sFw_U-145">
          <mxGeometry width="120" height="40" as="geometry">
            <mxRectangle width="120" height="40" as="alternateBounds" />
          </mxGeometry>
        </mxCell>
        <mxCell id="UXWDfSaP-iCwVB9sFw_U-147" value="&lt;font color=&quot;#333333&quot; face=&quot;Lucida Console&quot; style=&quot;font-size: 17px;&quot;&gt;String&lt;/font&gt;" style="shape=partialRectangle;html=1;whiteSpace=wrap;connectable=0;strokeColor=inherit;overflow=hidden;fillColor=none;top=0;left=0;bottom=0;right=0;pointerEvents=1;" vertex="1" parent="UXWDfSaP-iCwVB9sFw_U-145">
          <mxGeometry x="120" width="120" height="40" as="geometry">
            <mxRectangle width="120" height="40" as="alternateBounds" />
          </mxGeometry>
        </mxCell>
        <mxCell id="UXWDfSaP-iCwVB9sFw_U-148" value="" style="shape=tableRow;horizontal=0;startSize=0;swimlaneHead=0;swimlaneBody=0;strokeColor=default;top=0;left=0;bottom=0;right=0;collapsible=0;dropTarget=0;fillColor=none;points=[[0,0.5],[1,0.5]];portConstraint=eastwest;swimlaneFillColor=none;dashed=1;swimlaneLine=0;" vertex="1" parent="UXWDfSaP-iCwVB9sFw_U-144">
          <mxGeometry y="40" width="240" height="40" as="geometry" />
        </mxCell>
        <mxCell id="UXWDfSaP-iCwVB9sFw_U-149" value="&lt;font color=&quot;#333333&quot; face=&quot;Lucida Console&quot; style=&quot;font-size: 17px;&quot;&gt;&lt;u&gt;user:&lt;/u&gt;&lt;/font&gt;" style="shape=partialRectangle;html=1;whiteSpace=wrap;connectable=0;strokeColor=default;overflow=hidden;fillColor=none;top=0;left=0;bottom=0;right=0;pointerEvents=1;swimlaneFillColor=none;dashed=1;swimlaneLine=0;" vertex="1" parent="UXWDfSaP-iCwVB9sFw_U-148">
          <mxGeometry width="120" height="40" as="geometry">
            <mxRectangle width="120" height="40" as="alternateBounds" />
          </mxGeometry>
        </mxCell>
        <mxCell id="UXWDfSaP-iCwVB9sFw_U-150" value="String" style="shape=partialRectangle;connectable=0;strokeColor=default;overflow=hidden;fillColor=none;top=0;left=0;bottom=0;right=0;pointerEvents=1;fontSize=17;swimlaneFillColor=none;dashed=1;swimlaneLine=0;fontFamily=Lucida Console;fontColor=#333333;" vertex="1" parent="UXWDfSaP-iCwVB9sFw_U-148">
          <mxGeometry x="120" width="120" height="40" as="geometry">
            <mxRectangle width="120" height="40" as="alternateBounds" />
          </mxGeometry>
        </mxCell>
        <mxCell id="UXWDfSaP-iCwVB9sFw_U-151" value="" style="shape=table;startSize=0;container=1;collapsible=0;childLayout=tableLayout;rowLines=0;fillColor=#f5f5f5;fontColor=#000000;strokeColor=#666666;" vertex="1" parent="1">
          <mxGeometry x="430" y="240" width="240" height="80" as="geometry" />
        </mxCell>
        <mxCell id="UXWDfSaP-iCwVB9sFw_U-152" value="" style="shape=tableRow;horizontal=0;startSize=0;swimlaneHead=0;swimlaneBody=0;strokeColor=inherit;top=0;left=0;bottom=0;right=0;collapsible=0;dropTarget=0;fillColor=none;points=[[0,0.5],[1,0.5]];portConstraint=eastwest;" vertex="1" parent="UXWDfSaP-iCwVB9sFw_U-151">
          <mxGeometry width="240" height="40" as="geometry" />
        </mxCell>
        <mxCell id="UXWDfSaP-iCwVB9sFw_U-153" value="&lt;font size=&quot;1&quot; color=&quot;#333333&quot; face=&quot;Lucida Console&quot; style=&quot;&quot;&gt;&lt;span style=&quot;font-size: 17px;&quot;&gt;&lt;u&gt;port:&lt;/u&gt;&lt;/span&gt;&lt;/font&gt;" style="shape=partialRectangle;html=1;whiteSpace=wrap;connectable=0;strokeColor=inherit;overflow=hidden;fillColor=none;top=0;left=0;bottom=0;right=0;pointerEvents=1;" vertex="1" parent="UXWDfSaP-iCwVB9sFw_U-152">
          <mxGeometry width="120" height="40" as="geometry">
            <mxRectangle width="120" height="40" as="alternateBounds" />
          </mxGeometry>
        </mxCell>
        <mxCell id="UXWDfSaP-iCwVB9sFw_U-154" value="&lt;font face=&quot;Lucida Console&quot; color=&quot;#333333&quot;&gt;&lt;span style=&quot;font-size: 17px;&quot;&gt;Int&lt;/span&gt;&lt;/font&gt;" style="shape=partialRectangle;html=1;whiteSpace=wrap;connectable=0;strokeColor=inherit;overflow=hidden;fillColor=none;top=0;left=0;bottom=0;right=0;pointerEvents=1;" vertex="1" parent="UXWDfSaP-iCwVB9sFw_U-152">
          <mxGeometry x="120" width="120" height="40" as="geometry">
            <mxRectangle width="120" height="40" as="alternateBounds" />
          </mxGeometry>
        </mxCell>
        <mxCell id="UXWDfSaP-iCwVB9sFw_U-155" value="" style="shape=tableRow;horizontal=0;startSize=0;swimlaneHead=0;swimlaneBody=0;strokeColor=default;top=0;left=0;bottom=0;right=0;collapsible=0;dropTarget=0;fillColor=none;points=[[0,0.5],[1,0.5]];portConstraint=eastwest;swimlaneFillColor=none;dashed=1;swimlaneLine=0;" vertex="1" parent="UXWDfSaP-iCwVB9sFw_U-151">
          <mxGeometry y="40" width="240" height="40" as="geometry" />
        </mxCell>
        <mxCell id="UXWDfSaP-iCwVB9sFw_U-156" value="&lt;font style=&quot;font-size: 17px;&quot; face=&quot;Lucida Console&quot; color=&quot;#333333&quot;&gt;&lt;u&gt;connect:&lt;/u&gt;&lt;/font&gt;" style="shape=partialRectangle;html=1;whiteSpace=wrap;connectable=0;strokeColor=default;overflow=hidden;fillColor=none;top=0;left=0;bottom=0;right=0;pointerEvents=1;swimlaneFillColor=none;dashed=1;swimlaneLine=0;" vertex="1" parent="UXWDfSaP-iCwVB9sFw_U-155">
          <mxGeometry width="120" height="40" as="geometry">
            <mxRectangle width="120" height="40" as="alternateBounds" />
          </mxGeometry>
        </mxCell>
        <mxCell id="UXWDfSaP-iCwVB9sFw_U-157" value="String" style="shape=partialRectangle;connectable=0;strokeColor=default;overflow=hidden;fillColor=none;top=0;left=0;bottom=0;right=0;pointerEvents=1;fontSize=17;swimlaneFillColor=none;dashed=1;swimlaneLine=0;fontFamily=Lucida Console;fontColor=#333333;" vertex="1" parent="UXWDfSaP-iCwVB9sFw_U-155">
          <mxGeometry x="120" width="120" height="40" as="geometry">
            <mxRectangle width="120" height="40" as="alternateBounds" />
          </mxGeometry>
        </mxCell>
      </root>
    </mxGraphModel>
  </diagram>
</mxfile>
